<svg width="17" height="17" viewBox="0 0 17 17" fill="none" xmlns="http://www.w3.org/2000/svg">
<mask id="mask0_1_258" style="mask-type:luminance" maskUnits="userSpaceOnUse" x="2" y="10" width="11" height="5">
<path fill-rule="evenodd" clip-rule="evenodd" d="M2.24838 10.0167H12.6973V14.8843H2.24838V10.0167Z" fill="white"/>
</mask>
<g mask="url(#mask0_1_258)">
<path fill-rule="evenodd" clip-rule="evenodd" d="M7.47286 11.0116C4.66662 11.0116 3.24327 11.4938 3.24327 12.4436C3.24327 13.4027 4.66662 13.8895 7.47286 13.8895C10.2791 13.8895 11.7024 13.4073 11.7024 12.4582C11.7024 11.4978 10.2791 11.0116 7.47286 11.0116ZM7.47285 14.8844C6.18083 14.8844 2.24838 14.8844 2.24838 12.4436C2.24838 10.2681 5.22972 10.0167 7.47285 10.0167C8.76488 10.0167 12.6973 10.0167 12.6973 12.4582C12.6973 14.633 9.71598 14.8844 7.47285 14.8844Z" fill="black"/>
</g>
<path fill-rule="evenodd" clip-rule="evenodd" d="M7.47286 2.75011C6.07736 2.75011 4.94121 3.88627 4.94121 5.28242C4.93855 5.95828 5.19855 6.59169 5.67278 7.0699C6.14767 7.54744 6.78042 7.81208 7.45428 7.81473L7.47286 8.31217V7.81473C8.86901 7.81473 10.0052 6.67858 10.0052 5.28242C10.0052 3.88627 8.86901 2.75011 7.47286 2.75011ZM7.47285 8.80962H7.45228C6.51112 8.8063 5.62899 8.43687 4.96773 7.77096C4.3058 7.10438 3.943 6.2196 3.94631 5.28043C3.94631 3.33775 5.52818 1.75522 7.47285 1.75522C9.41818 1.75522 11 3.33775 11 5.28242C11 7.22709 9.41818 8.80962 7.47285 8.80962Z" fill="black"/>
<path fill-rule="evenodd" clip-rule="evenodd" d="M13.6591 9.33605C13.3845 9.33605 13.1617 9.11319 13.1617 8.8386V6.17828C13.1617 5.90369 13.3845 5.68084 13.6591 5.68084C13.9337 5.68084 14.1566 5.90369 14.1566 6.17828V8.8386C14.1566 9.11319 13.9337 9.33605 13.6591 9.33605Z" fill="black"/>
<path fill-rule="evenodd" clip-rule="evenodd" d="M15.0161 8.00562H12.3034C12.0288 8.00562 11.8059 7.78276 11.8059 7.50818C11.8059 7.23359 12.0288 7.01073 12.3034 7.01073H15.0161C15.2907 7.01073 15.5135 7.23359 15.5135 7.50818C15.5135 7.78276 15.2907 8.00562 15.0161 8.00562Z" fill="black"/>
</svg>
