<svg width="17" height="17" viewBox="0 0 17 17" fill="none" xmlns="http://www.w3.org/2000/svg">
<path fill-rule="evenodd" clip-rule="evenodd" d="M10.6175 11.6868H5.82874C5.55415 11.6868 5.3313 11.464 5.3313 11.1894C5.3313 10.9148 5.55415 10.692 5.82874 10.692H10.6175C10.892 10.692 11.1149 10.9148 11.1149 11.1894C11.1149 11.464 10.892 11.6868 10.6175 11.6868Z" fill="black"/>
<path fill-rule="evenodd" clip-rule="evenodd" d="M10.6175 8.91013H5.82874C5.55415 8.91013 5.3313 8.68728 5.3313 8.41269C5.3313 8.1381 5.55415 7.91525 5.82874 7.91525H10.6175C10.892 7.91525 11.1149 8.1381 11.1149 8.41269C11.1149 8.68728 10.892 8.91013 10.6175 8.91013Z" fill="black"/>
<path fill-rule="evenodd" clip-rule="evenodd" d="M7.65583 6.13984H5.82856C5.55397 6.13984 5.33112 5.91698 5.33112 5.6424C5.33112 5.36781 5.55397 5.14495 5.82856 5.14495H7.65583C7.93042 5.14495 8.15327 5.36781 8.15327 5.6424C8.15327 5.91698 7.93042 6.13984 7.65583 6.13984Z" fill="black"/>
<mask id="mask0_1_260" style="mask-type:luminance" maskUnits="userSpaceOnUse" x="2" y="1" width="13" height="14">
<path fill-rule="evenodd" clip-rule="evenodd" d="M2.18362 1.75558H14.2315V14.9609H2.18362V1.75558Z" fill="white"/>
</mask>
<g mask="url(#mask0_1_260)">
<path fill-rule="evenodd" clip-rule="evenodd" d="M10.7454 2.75034L5.64561 2.75299C4.10155 2.76228 3.1783 3.71736 3.1783 5.30852V11.4078C3.1783 13.0096 4.11017 13.966 5.66949 13.966L10.7693 13.964C12.3133 13.9547 13.2366 12.9983 13.2366 11.4078V5.30852C13.2366 3.70675 12.3054 2.75034 10.7454 2.75034ZM5.67006 14.9608C3.58478 14.9608 2.18332 13.5328 2.18332 11.4078V5.30845C2.18332 3.16414 3.541 1.77064 5.6422 1.75804L10.7446 1.75539H10.7453C12.8306 1.75539 14.2314 3.18338 14.2314 5.30845V11.4078C14.2314 13.5514 12.8737 14.9456 10.7725 14.9588L5.67006 14.9608Z" fill="black"/>
</g>
</svg>
